<?xml version="1.0" encoding="UTF-8" standalone="no"?>
<!-- Created with Inkscape (http://www.inkscape.org/) -->

<svg
   xmlns:dc="http://purl.org/dc/elements/1.1/"
   xmlns:cc="http://creativecommons.org/ns#"
   xmlns:rdf="http://www.w3.org/1999/02/22-rdf-syntax-ns#"
   xmlns:svg="http://www.w3.org/2000/svg"
   xmlns="http://www.w3.org/2000/svg"
   xmlns:sodipodi="http://sodipodi.sourceforge.net/DTD/sodipodi-0.dtd"
   xmlns:inkscape="http://www.inkscape.org/namespaces/inkscape"
   version="1.1"
   width="600"
   height="400"
   id="svg3412"
   inkscape:version="0.48.4 r9939"
   sodipodi:docname="xbox controller.svg">
  <sodipodi:namedview
     pagecolor="#ffffff"
     bordercolor="#666666"
     borderopacity="1"
     objecttolerance="10"
     gridtolerance="10"
     guidetolerance="10"
     inkscape:pageopacity="0"
     inkscape:pageshadow="2"
     inkscape:window-width="1920"
     inkscape:window-height="1028"
     id="namedview46"
     showgrid="false"
     inkscape:zoom="1.3717872"
     inkscape:cx="404.79952"
     inkscape:cy="163.90789"
     inkscape:window-x="-8"
     inkscape:window-y="-8"
     inkscape:window-maximized="1"
     inkscape:current-layer="svg3412" />
  <metadata
     id="metadata3418">
    <rdf:RDF>
      <cc:Work
         rdf:about="">
        <dc:format>image/svg+xml</dc:format>
        <dc:type
           rdf:resource="http://purl.org/dc/dcmitype/StillImage" />
        <dc:title></dc:title>
      </cc:Work>
    </rdf:RDF>
  </metadata>
  <defs
     id="defs3416" />
  <path
     d="m 86.058885,358.56862 c -20.09742,-6.99576 -31.87316,-20.45205 -37.54048,-42.89803 -1.89577,-7.50836 -2.19451,-11.34865 -2.15608,-27.71604 0.047,-20.02927 1.36334,-31.73524 6.01596,-53.5 6.94645,-32.49522 22.1495,-78.10378 40.32131,-120.96234 7.818985,-18.441242 10.054325,-22.181748 15.662865,-26.209496 3.60847,-2.591406 5.38076,-4.980746 8.42397,-11.356904 l 3.85406,-8.075037 12.82736,-6.173538 c 16.69297,-8.033976 37.83158,-15.976413 46.45778,-17.455641 11.52259,-1.975905 24.55261,1.359626 34.51965,8.836623 l 3.17254,2.379955 64.67314,-0.0139 64.67313,-0.0139 3.15432,-2.366054 c 9.94929,-7.462958 22.9876,-10.797122 34.50141,-8.822721 8.62619,1.479228 29.7648,9.421665 46.45777,17.455641 l 12.82736,6.173538 3.85406,8.075037 c 3.04321,6.376158 4.8155,8.765498 8.42397,11.356904 5.60854,4.027748 7.84388,7.768254 15.66287,26.209503 18.17181,42.85855 33.37487,88.46711 40.32132,120.96233 4.65261,21.76476 5.96892,33.47073 6.01595,53.5 0.0384,16.36739 -0.26031,20.20768 -2.15608,27.71604 -5.74944,22.77121 -18.09578,36.59264 -38.66397,43.28338 -7.58396,2.46703 -8.88239,2.63127 -11.80574,1.49332 -2.02035,-0.78643 -12.90723,-10.98193 -28.28461,-26.48835 -23.03257,-23.22584 -41.36076,-39.97789 -51.19756,-46.7948 -2.17208,-1.50525 -6.49247,-3.63069 -9.60085,-4.72321 -5.47509,-1.92434 -8.41739,-1.98638 -94.20158,-1.98638 -85.78419,0 -88.72649,0.062 -94.20158,1.98638 -3.10839,1.09252 -7.42878,3.21796 -9.60087,4.72321 -9.94154,6.88949 -28.14643,23.52209 -50.19756,45.86217 -22.60354,22.89973 -28.934325,28.43404 -32.499995,28.41112 -0.825,-0.005 -5.19623,-1.29626 -9.71384,-2.86881 z"
     id="path3518"
     style="fill:#000000" />
  <path
     style="fill:#333333"
     d="M 380.96875 64.46875 C 371.28792 64.506 368.92326 66.257614 350.09375 87.0625 C 340.69119 97.451457 331.47271 107.39215 329.625 109.15625 C 323.2793 115.21484 321.45204 115.46182 280.90625 115.4375 C 247.5133 115.4175 243.91025 115.23927 240.21875 113.5625 C 237.32294 112.24714 231.32155 106.354 219.125 92.84375 C 198.59596 70.103505 195.17239 66.89996 189.59375 65.375 C 181.44756 63.148177 159.92122 67.259856 139.0625 75.03125 C 125.99826 79.898633 108.90556 88.011286 105.90625 90.75 C 99.230315 96.845887 74.77111 158.59517 62.3125 200.84375 C 55.91184 222.54908 52.26937 238.49066 49.75 255.65625 C 41.05882 314.87301 52.99746 346.68083 88.21875 358.09375 C 92.09738 359.35056 95.77002 360.38164 96.375 360.40625 C 96.97998 360.43085 99.320315 359.11561 101.59375 357.46875 C 103.86718 355.82188 111.91024 348.05938 119.46875 340.21875 C 145.08798 313.64327 158.93359 300.64832 173.9375 289.15625 C 187.56632 278.71742 179.50258 279.46875 282.28125 279.46875 C 385.0599 279.46875 376.96495 278.71742 390.59375 289.15625 C 405.61095 300.65849 418.87757 313.09774 445.59375 340.71875 C 453.45137 348.84249 461.63025 356.67028 463.78125 358.09375 L 467.6875 360.65625 L 475 358.46875 C 511.22517 347.53449 523.6056 315.56748 514.8125 255.65625 C 512.29313 238.49066 508.6194 222.54908 502.21875 200.84375 C 493.27342 170.50913 477.07724 126.94342 465.78125 102.84375 C 460.46538 91.502472 457.98228 89.190979 444.4375 82.9375 C 426.85647 74.820523 391.15138 64.429564 380.96875 64.46875 z M 404.28125 92.5 C 407.65806 92.463868 411.11632 93.477408 414.21875 95.84375 C 428.55613 106.7794 417.87011 128.83908 400 125.1875 C 394.64105 124.09245 389.24686 118.94286 387.78125 113.5 C 384.74234 102.21434 394.15083 92.608395 404.28125 92.5 z M 162.90625 103.65625 C 176.74579 103.2582 190.06048 111.0436 196.21875 124.53125 C 205.09275 143.96682 194.73468 166.92257 174.375 172.96875 C 168.25773 174.78538 158.7536 174.77029 152.875 172.9375 C 146.31369 170.89183 138.37431 164.96737 134.375 159.125 C 121.91625 140.92467 128.92114 116.09146 149.125 106.875 C 153.60735 104.83027 158.29307 103.78893 162.90625 103.65625 z M 371.375 123.28125 C 374.21897 123.24498 377.11339 123.96812 379.78125 125.59375 C 384.16578 128.26542 385.9631 130.74922 387.34375 135.90625 C 390.83 148.92813 377.50468 160.41727 364.78125 155.34375 C 358.60226 152.87985 354.78125 146.87991 354.78125 139.65625 C 354.78125 130.27898 362.84308 123.39007 371.375 123.28125 z M 438 123.34375 C 443.12767 123.38336 448.42724 125.70633 452.1875 130.78125 C 455.13681 134.76169 455.15497 145.1297 452.21875 149.0625 C 448.55013 153.97622 445.17327 155.79967 439.03125 156.1875 C 434.25672 156.48898 432.59491 156.13634 429.28125 154.09375 C 423.8864 150.76835 421.34909 146.2047 421.34375 139.8125 C 421.33513 129.51736 429.45388 123.27773 438 123.34375 z M 316.03125 130.03125 C 319.63702 130.03099 323.61943 132.21976 325.21875 135.3125 C 327.16322 139.0727 327.14665 139.84357 325.21875 143.90625 C 322.30321 150.05029 314.52512 151.36887 309.6875 146.53125 C 307.57022 144.41397 306.78125 142.62905 306.78125 140.09375 C 306.78125 135.80098 310.57537 130.90648 314.5 130.15625 C 314.99204 130.06219 315.51614 130.03129 316.03125 130.03125 z M 246.9375 130.15625 C 254.30252 129.94749 258.87694 135.75756 256.8125 142.6875 C 255.13629 148.31417 247.59508 151.32441 242.53125 148.375 C 240.23394 147.03694 237.78125 142.21743 237.78125 139.03125 C 237.78125 135.00738 242.6503 130.27778 246.9375 130.15625 z M 404.28125 154.53125 C 406.75765 154.57248 409.28076 155.19373 411.71875 156.4375 C 417.09617 159.18085 420.04168 163.65714 420.5625 169.9375 C 421.04678 175.7773 419.61702 179.42163 415.125 183.625 C 412.79029 185.80969 405.76062 188.7269 403.78125 188.34375 C 403.50625 188.29055 401.93125 187.92944 400.28125 187.53125 C 390.86724 185.25936 385.34226 176.44164 387.75 167.5 C 389.93603 159.38168 396.85205 154.40756 404.28125 154.53125 z M 345.90625 176.21875 C 355.04697 176.34789 364.11022 179.85919 370.75 187.0625 C 377.5786 194.47065 380.28676 201.37526 380.28125 211.46875 C 380.27725 218.72982 379.85275 220.87555 377.375 226.25 C 370.6424 240.85351 353.39728 249.67266 337.90625 246.4375 C 315.28745 241.71378 302.77608 216.63463 312.75 196.03125 C 319.04462 183.0283 332.54674 176.03 345.90625 176.21875 z M 220.34375 176.65625 C 222.85902 176.58457 225.4263 176.77718 227.96875 177.25 C 245.40075 180.49182 257.85811 193.00795 260.90625 210.3125 C 263.80465 226.76697 253.8881 244.90397 238 252.21875 C 231.082 255.40375 217.03792 256.33571 210.0625 254.0625 C 190.82419 247.79297 178.8446 227.9595 182.78125 208.90625 C 186.5933 190.45596 202.73684 177.15804 220.34375 176.65625 z "
     id="path3516" />
  <path
     style="fill:#000000;fill-opacity:1"
     d="M 220.03125 178.03125 C 214.81388 178.23668 209.52893 179.5454 204.5 182.09375 C 189.825 189.53014 180.86732 206.69812 183.6875 222 C 187.36865 241.97343 203.29266 254.87502 223.3125 254.125 C 229.77169 253.88301 232.63046 253.24236 237.8125 250.8125 C 253.35258 243.52575 262.30412 227.02141 259.6875 210.46875 C 256.53273 190.51185 238.66473 177.29756 220.03125 178.03125 z M 222.09375 180.71875 C 225.2596 180.62411 228.30197 181.45637 230.625 183.1875 C 233.0673 185.00752 233.2953 185.8056 233.5625 193.78125 L 233.84375 202.375 L 242.53125 202.65625 L 251.21875 202.96875 L 253.46875 206.96875 C 256.34805 212.05976 256.48122 218.79048 253.78125 223.21875 L 251.8125 226.46875 L 242.78125 226.46875 L 233.78125 226.46875 L 233.78125 235.4375 L 233.78125 244.40625 L 229.8125 246.4375 C 224.64282 249.07487 217.32793 249.08846 213.03125 246.46875 L 209.78125 244.46875 L 209.78125 235.46875 L 209.78125 226.46875 L 200.25 226.46875 L 190.75 226.46875 L 188.8125 223.28125 C 185.53209 217.88705 185.26962 213.06517 187.9375 207.6875 L 190.28125 202.96875 L 199.96875 202.65625 L 209.6875 202.375 L 209.96875 193.65625 L 210.28125 184.96875 L 214.78125 182.625 C 217.1154 181.42443 219.63142 180.79236 222.09375 180.71875 z "
     id="path3512" />
  <path
     d="m 228.81257,245.43423 3.96016,-2.02033 0,-8.97967 0,-8.97968 9.0147,0 9.0147,0 2.04097,-3.25 c 2.54498,-4.05259 2.1637,-11.61776 -0.78496,-15.57449 -1.85677,-2.49156 -2.58829,-2.69538 -10.63963,-2.96444 l -8.64578,-0.28894 0,-8.87186 0,-8.87186 -4.55232,-2.20374 c -4.91862,-2.38106 -7.97064,-2.24394 -14.02752,0.63024 l -3.42016,1.62297 0,8.84985 0,8.84985 -9.64527,0.28621 c -9.01392,0.26748 -9.76962,0.45304 -11.54496,2.83491 -2.51101,3.36887 -2.66761,9.72255 -0.36546,14.82779 l 1.85944,4.12351 9.84812,0 9.84813,0 0,8.84501 c 0,9.08375 0.71807,10.87112 5,12.44555 3.2841,1.20755 9.286,0.60418 13.03984,-1.31088 z"
     id="path3508"
     style="fill:#1a1a1a" />
  <path
     d="m 360.11951,242.28884 c 8.97159,-4.55275 14.65192,-11.213 17.64558,-20.68963 2.54198,-8.04684 2.52694,-12.25266 -0.0739,-20.67325 -2.79924,-9.06289 -11.42116,-18.11883 -20.41845,-21.44631 -8.39987,-3.10653 -19.85204,-2.55533 -27.81086,1.33856 -19.9459,9.75862 -25.05777,36.88762 -10.088,53.53761 10.03226,11.15828 27.63602,14.58567 40.74564,7.93302 z"
     id="path3504"
     style="fill:#000000" />
  <path
     style="fill:#333333;fill-opacity:1"
     d="M 343.78125 186.59375 C 334.91035 186.59375 326.04296 191.28888 321.375 200.65625 C 314.84508 213.7601 321.40118 229.84842 335.40625 235.0625 C 340.55245 236.97842 350.21544 236.3079 355.3125 233.6875 C 367.33397 227.50728 372.19916 212.72008 366.1875 200.65625 C 361.51954 191.28888 352.65215 186.59375 343.78125 186.59375 z M 343.84375 194.21875 C 355.40472 194.21875 364.21678 205.49649 360.78125 215.90625 C 359.2051 220.68203 355.11029 225.41554 351.09375 227.09375 C 340.69187 231.43994 328.47695 225.01429 327.0625 214.46875 C 325.51798 202.9535 332.74078 194.21875 343.84375 194.21875 z "
     id="path3500" />
  <path
     d="m 412.89767,184.01561 c 11.70189,-7.95163 7.21017,-26.36514 -6.89284,-28.25675 -5.34363,-0.71673 -12.38556,2.58987 -15.1944,7.13468 -2.69861,4.36644 -2.7186,11.932 -0.0431,16.32015 4.48451,7.35519 15.01142,9.63936 22.13035,4.80192 z"
     id="path3492"
     style="fill:#008000" />
  <path
     d="m 179.13495,169.59699 c 28.56645,-14.06321 24.11022,-55.6069 -6.82233,-63.60195 -7.43674,-1.92216 -9.63196,-1.92313 -17.0798,-0.008 -15.06497,3.87461 -25.53008,17.07737 -25.73493,32.4671 -0.34553,25.95922 26.25939,42.65123 49.63706,31.14244 z"
     id="path3484"
     style="fill:#000000;fill-opacity:1" />
  <path
     style="fill:#333333;fill-opacity:1"
     d="M 161.84375 114.53125 C 155.74423 114.69409 149.72762 116.95891 145.40625 121.15625 C 134.41272 131.83424 134.30378 146.46277 145.125 157 C 151.28803 163.0013 155.07074 164.42437 163.90625 164.125 C 169.27288 163.94316 171.44927 163.34161 175.40625 160.90625 C 191.6416 150.91409 191.64807 128.00766 175.4375 118.03125 C 171.38091 115.53471 166.58782 114.4046 161.84375 114.53125 z M 161.84375 120.84375 C 168.68859 120.81306 175.57745 124.57792 178.90625 131.90625 C 182.47589 139.76478 180.17475 148.74949 173.25 154.03125 C 168.28923 157.81501 157.98654 158.66796 153.28125 155.65625 C 143.86063 149.62641 140.92421 138.97195 146.21875 129.9375 C 149.77753 123.8649 155.80419 120.87083 161.84375 120.84375 z "
     id="path3480" />
  <path
     d="m 379.16863,153.1881 c 4.85108,-2.78117 7.60409,-7.78462 7.60409,-13.82007 0,-11.14431 -12.12595,-18.26927 -22.61855,-13.2902 -4.66403,2.21322 -7.6093,6.69273 -8.1585,12.40838 -1.20274,12.51716 12.17711,21.0059 23.17296,14.70189 z"
     id="path3472"
     style="fill:#0000ff" />
  <path
     d="m 445.78289,153.20455 c 5.52925,-3.76317 7.48983,-7.23157 7.48983,-13.25 0,-6.01844 -1.96058,-9.48684 -7.48983,-13.25001 -5.99041,-4.07704 -15.82824,-2.21812 -20.25547,3.82739 -3.89228,5.31504 -3.9243,13.53971 -0.0728,18.69837 4.60573,6.16888 14.31473,8.06703 20.32827,3.97425 z"
     id="path3466"
     style="fill:#ff0000" />
  <path
     d="m 251.256,147.46091 c 2.95594,-1.12385 5.84869,-6.90035 4.85778,-9.70046 -1.2936,-3.65547 -4.62818,-6.3059 -7.93358,-6.3059 -4.61756,0 -6.27942,0.8517 -7.94446,4.07152 -2.16989,4.19612 -1.79753,6.74781 1.46007,10.0054 3.09639,3.0964 5.3138,3.54392 9.56019,1.92944 z"
     id="path3456"
     style="fill:#1a1a1a" />
  <path
     d="m 323.02273,145.37418 c 4.28357,-5.24113 0.64092,-13.91964 -5.84253,-13.91964 -4.61756,0 -6.27942,0.8517 -7.94446,4.07153 -2.18747,4.23012 -1.79322,6.75211 1.58338,10.12872 2.6338,2.63379 3.548,2.96609 6.75,2.45349 2.03699,-0.3261 4.49111,-1.55644 5.45361,-2.7341 z"
     id="path3452"
     style="fill:#1a1a1a" />
  <path
     d="m 411.78832,122.60044 c 13.05711,-6.94788 8.69291,-27.184566 -6.2252,-28.866052 -9.19076,-1.035933 -16.79388,5.911134 -16.78666,15.338192 0.009,12.01993 12.28441,19.2361 23.01186,13.52786 z"
     id="path3448"
     style="fill:#ffff00" />
  <path
     id="path3028"
     d="m 343.5625,56.4375 -61.59375,0.25 -61.5625,0.28125 -0.71875,2.6875 C 219.29151,61.137111 216.62251,66.244418 213.75,71 l -5.21875,8.625 3.9375,4.15625 c 2.15953,2.288557 8.63056,9.320103 14.375,15.59375 6.60763,7.21635 11.90692,12.08248 14.4375,13.25 3.69666,1.70551 6.84299,1.82672 41.5,1.59375 l 37.5,-0.25 4.1875,-2.5 c 3.93316,-2.33806 30.3125,-30.321504 30.3125,-32.15625 0,-0.460622 -2.26202,-4.774631 -5.03125,-9.59375 -2.76923,-4.819119 -5.30856,-9.789577 -5.625,-11.03125 z"
     style="fill:#ffffff"
     inkscape:connector-curvature="0"
     sodipodi:nodetypes="cccccccsscccsscc" />
  <path
     style="fill:#4d4d4d"
     d="M 343.5625 56.4375 L 281.96875 56.6875 L 220.40625 56.96875 L 219.6875 59.65625 C 219.29151 61.137111 216.62251 66.244418 213.75 71 L 208.53125 79.625 L 212.46875 83.78125 C 214.62828 86.069807 221.09931 93.101353 226.84375 99.375 C 233.45138 106.59135 238.75067 111.45748 241.28125 112.625 C 244.97791 114.33051 248.12424 114.45172 282.78125 114.21875 L 320.28125 113.96875 L 324.46875 111.46875 C 328.40191 109.13069 354.78125 81.147246 354.78125 79.3125 C 354.78125 78.851878 352.51923 74.537869 349.75 69.71875 C 346.98077 64.899631 344.44144 59.929173 344.125 58.6875 L 343.5625 56.4375 z M 282.3125 67.8125 C 285.63371 67.782809 288.92883 68.300995 290.5 69.28125 C 291.31343 69.788757 290.11135 70.747993 287 72.0625 L 282.25 74.09375 L 277.25 71.875 L 272.28125 69.6875 L 276.6875 68.5 C 278.30256 68.06017 280.31977 67.830315 282.3125 67.8125 z M 266.78125 74.40625 L 270.78125 76.46875 C 272.98223 77.591607 274.78125 78.775593 274.78125 79.125 C 274.78125 79.474407 273.70355 81.173085 272.40625 82.875 C 271.10895 84.576915 268.70006 88.66875 267.03125 91.96875 L 264 97.96875 L 262.78125 93.53125 C 261.34173 88.190706 262.14316 82.045638 264.8125 77.65625 L 266.78125 74.40625 z M 297.78125 74.40625 L 299.75 77.65625 C 300.83325 79.437513 301.99569 82.803964 302.34375 85.125 C 302.7451 87.801351 302.43265 90.92127 301.5 93.65625 L 300.03125 97.96875 L 297.5625 92.40625 C 296.19207 89.351765 293.58248 85.176488 291.78125 83.125 C 289.98002 81.073512 288.6643 79.220172 288.875 79.03125 C 289.08569 78.842328 291.19277 77.741785 293.53125 76.5625 L 297.78125 74.40625 z M 281.8125 84.09375 L 285.84375 88.03125 C 290.07303 92.156191 295.78125 100.33765 295.78125 102.28125 C 295.78125 102.90648 294.31875 104.16182 292.53125 105.09375 C 284.88909 109.07809 275.54624 108.3476 269.09375 103.25 C 267.60728 102.07565 271.77545 94.971599 277.75 88.5 L 281.8125 84.09375 z "
     id="path3444" />
  <path
     d="m 125.9609,79.097224 c 16.43911,-7.560447 38.56947,-13.870842 53.43729,-15.237459 10.3184,-0.948444 14.50737,0.571678 22.31475,8.09772 l 6.55979,6.323417 5.25,-9.234794 c 2.8875,-5.079136 5.2305,-9.877566 5.20668,-10.663178 -0.0598,-1.972208 -10.45882,-8.553304 -17.33318,-10.969446 -9.03162,-3.174358 -16.02765,-3.505112 -25.17407,-1.190163 -15.30665,3.8741 -53.68767,20.617303 -55.54606,24.231224 -0.42425,0.825 -2.09985,4.281891 -3.72356,7.681981 -3.39472,7.108596 -4.17778,7.025086 9.00836,0.960698 z"
     id="path3426"
     style="fill:#000000" />
  <path
     d="m 447.62689,78.204545 c -1.64241,-3.4375 -3.3333,-6.925 -3.75755,-7.75 -1.85839,-3.613921 -40.23941,-20.357124 -55.54606,-24.231224 -12.91881,-3.269741 -24.55361,-0.969148 -37.09224,7.33439 -4.54615,3.010625 -6.13279,4.614882 -5.71832,5.781799 0.31551,0.888269 2.83638,5.53592 5.60194,10.328112 l 5.02829,8.713078 5.56489,-5.920261 c 6.64892,-7.073517 10.8308,-9.005894 19.48974,-9.005894 10.97129,0 45.96446,10.065138 62.98066,18.115223 3.35196,1.58576 6.17106,2.883554 6.26467,2.883988 0.0936,4.34e-4 -1.17361,-2.811711 -2.81602,-6.249211 z"
     id="path3422"
     style="fill:#000000" />
</svg>
