<?xml version="1.0" encoding="UTF-8" standalone="no"?>
<!-- Created with Inkscape (http://www.inkscape.org/) -->

<svg
   xmlns:dc="http://purl.org/dc/elements/1.1/"
   xmlns:cc="http://creativecommons.org/ns#"
   xmlns:rdf="http://www.w3.org/1999/02/22-rdf-syntax-ns#"
   xmlns:svg="http://www.w3.org/2000/svg"
   xmlns="http://www.w3.org/2000/svg"
   xmlns:sodipodi="http://sodipodi.sourceforge.net/DTD/sodipodi-0.dtd"
   xmlns:inkscape="http://www.inkscape.org/namespaces/inkscape"
   id="svg2"
   sodipodi:docname="grumbel-Playstation3-Gamepad.svg"
   viewBox="0 0 335.93823 189.15211"
   sodipodi:version="0.32"
   version="1.0"
   inkscape:output_extension="org.inkscape.output.svg.inkscape"
   inkscape:version="0.92.3 (2405546, 2018-03-11)"
   width="335.93823"
   height="189.15211">
  <defs
     id="defs62" />
  <sodipodi:namedview
     id="base"
     bordercolor="#666666"
     inkscape:pageshadow="2"
     guidetolerance="10"
     pagecolor="#ffffff"
     gridtolerance="10000"
     inkscape:window-height="1003"
     inkscape:zoom="2.5394869"
     objecttolerance="10"
     showgrid="false"
     borderopacity="1.0"
     inkscape:current-layer="layer1"
     inkscape:cx="181.40601"
     inkscape:cy="126.04726"
     showguides="true"
     inkscape:window-y="-4"
     inkscape:window-x="-4"
     inkscape:window-width="1920"
     inkscape:guide-bbox="true"
     inkscape:pageopacity="0.0"
     inkscape:document-units="px"
     inkscape:window-maximized="1"
     fit-margin-top="0"
     fit-margin-left="0"
     fit-margin-right="0"
     fit-margin-bottom="0" />
  <g
     id="layer1"
     inkscape:label="Layer 1"
     inkscape:groupmode="layer"
     transform="translate(-212.75349,-462.25339)">
    <path
       id="rect3225"
       style="fill:#3f3f3f;fill-rule:evenodd;stroke:#000000;stroke-linecap:round;stroke-linejoin:round"
       sodipodi:nodetypes="ccccccccccccc"
       d="m 60.281,24.156 c -1.536,0 -2.75,1.246 -2.75,2.782 v 73.152 c 0,1.54 1.214,2.75 2.75,2.75 h 121.78 c 1.54,0 2.78,-1.21 2.78,-2.75 V 26.938 c 0,-1.536 -1.24,-2.782 -2.78,-2.782 h -52.81 c -0.27,0.449 -0.77,0.75 -1.34,0.75 h -14.31 c -0.57,0 -1.04,-0.303 -1.31,-0.75 H 60.282 Z"
       transform="translate(260.34,473.69)"
       inkscape:connector-curvature="0" />
    <rect
       id="rect3318"
       style="fill:#262626;fill-rule:evenodd"
       rx="2.7723"
       ry="2.6796999"
       height="68.484001"
       width="114.69"
       y="504.14001"
       x="324.17001" />
    <path
       id="path3206"
       sodipodi:nodetypes="csscc"
       style="fill:#262626;fill-rule:evenodd;stroke:#000000"
       d="m 272.94,520.34 c -5.49,30.06 -9.07,62.22 -11.76,76.34 -4.23,22.13 32.77,40.74 46.79,15.16 10.65,-19.42 22.75,-44.18 22.75,-44.18 z"
       inkscape:connector-curvature="0" />
    <path
       id="path3258"
       sodipodi:nodetypes="ccscsc"
       style="fill:#7a7a7a;fill-rule:evenodd;stroke:#000000"
       d="m 435.52,483.74 h 33.15 l -2.6,-4.27 c -1.7,-2.8 -6.13,-4.88 -13.98,-4.88 -7.84,0 -12.27,2.08 -13.98,4.88 z"
       inkscape:connector-curvature="0" />
    <path
       id="path3234"
       sodipodi:nodetypes="ccscsc"
       style="fill:#7a7a7a;fill-rule:evenodd;stroke:#000000"
       d="m 293.16,483.74 h 33.15 l -2.59,-4.27 c -1.71,-2.8 -6.14,-4.88 -13.98,-4.88 -7.85,0 -12.28,2.08 -13.98,4.88 z"
       inkscape:connector-curvature="0" />
    <path
       id="path3229"
       sodipodi:nodetypes="cscsc"
       style="fill:#262626;fill-rule:evenodd;stroke:#000000"
       d="m 330.59,503.61 c -1.7,-10.98 -2.49,-16.47 -3.27,-20.53 -0.78,-4.05 -7.71,-6.14 -17.58,-6.14 -9.87,0 -16.8,2.09 -17.58,6.14 -0.79,4.06 -1.57,9.55 -3.27,20.53"
       inkscape:connector-curvature="0" />
    <circle
       id="path2416"
       style="fill:#333333;fill-rule:evenodd;stroke:#000000;stroke-width:0.99309999;stroke-linecap:round;stroke-linejoin:round"
       transform="matrix(1.0069,0,0,1.0069,3.9034,-2.889)"
       cx="303.79086"
       cy="528.9635"
       r="37.64706" />
    <path
       id="path3260"
       sodipodi:nodetypes="cscsc"
       style="fill:#262626;fill-rule:evenodd;stroke:#000000"
       d="m 472.94,503.61 c -1.7,-10.98 -2.48,-16.47 -3.27,-20.53 -0.78,-4.05 -7.71,-6.14 -17.58,-6.14 -9.87,0 -16.8,2.09 -17.58,6.14 -0.78,4.06 -1.57,9.55 -3.27,20.53"
       inkscape:connector-curvature="0" />
    <circle
       id="path3208"
       style="fill:#333333;fill-rule:evenodd;stroke:#000000;stroke-width:1.56519997;stroke-linecap:round;stroke-linejoin:round"
       transform="matrix(0.63889,0,0,0.63889,152.06,228.66)"
       cx="303.79086"
       cy="528.9635"
       r="37.64706" />
    <circle
       id="path3212"
       style="fill:#000000;fill-opacity:0.51851998;fill-rule:evenodd;stroke:#000000;stroke-width:2.02819991;stroke-linecap:round;stroke-linejoin:round"
       transform="matrix(0.49306,0,0,0.49306,196.36,305.8)"
       cx="303.79086"
       cy="528.9635"
       r="37.64706" />
    <circle
       id="path3210"
       style="fill:#4d4d4d;fill-opacity:0.51851998;fill-rule:evenodd;stroke:#000000;stroke-width:2.32259989;stroke-linecap:round;stroke-linejoin:round"
       transform="matrix(0.43056,0,0,0.43056,215.34,338.86)"
       cx="303.79086"
       cy="528.9635"
       r="37.64706" />
    <path
       id="path3223"
       sodipodi:nodetypes="csscc"
       style="fill:#262626;fill-rule:evenodd;stroke:#000000"
       d="m 490.08,520.34 c 5.49,30.06 9.07,62.75 11.76,76.34 4.38,22.1 -32.77,40.74 -46.8,15.16 C 444.4,592.42 432.3,567.66 432.3,567.66 Z"
       inkscape:connector-curvature="0" />
    <circle
       id="path3221"
       style="fill:#333333;fill-rule:evenodd;stroke:#000000;stroke-width:0.99309999;stroke-linecap:round;stroke-linejoin:round"
       transform="matrix(-1.0069,0,0,1.0069,759.11,-2.889)"
       cx="303.79086"
       cy="528.9635"
       r="37.64706" />
    <path
       id="path3219"
       style="fill:#262626;fill-rule:evenodd"
       d="m 445.43,501.73 c -1.53,0 -2.78,1.25 -2.78,2.78 v 14.66 h -14.69 c -1.53,0 -2.75,1.25 -2.75,2.78 v 15.59 c 0,1.54 1.22,2.79 2.75,2.79 h 14.69 v 14.65 c 0,1.54 1.25,2.78 2.78,2.78 h 15.6 c 1.53,0 2.75,-1.24 2.75,-2.78 v -14.65 h 14.68 c 1.54,0 2.75,-1.25 2.75,-2.79 v -15.59 c 0,-1.53 -1.21,-2.78 -2.75,-2.78 h -14.68 v -14.66 c 0,-1.53 -1.22,-2.78 -2.75,-2.78 z"
       inkscape:connector-curvature="0" />
    <rect
       id="rect3236"
       style="fill:#595959;fill-rule:evenodd;stroke:#000000;stroke-linecap:round;stroke-linejoin:round"
       rx="1.5686001"
       ry="1.5686001"
       height="6.6666999"
       width="11.634"
       y="530.28003"
       x="353.45999" />
    <path
       id="rect3238"
       sodipodi:nodetypes="csccsc"
       style="fill:#595959;fill-rule:evenodd;stroke:#000000;stroke-linecap:round;stroke-linejoin:round"
       d="m 407.19,533.61 -8.5,3.33 c -0.81,0.32 -1.57,-0.7 -1.57,-1.57 v -3.53 c 0,-0.86 0.76,-1.88 1.57,-1.56 z"
       inkscape:connector-curvature="0" />
    <circle
       id="path3242"
       style="fill:#595959;fill-rule:evenodd;stroke:#000000;stroke-linecap:round;stroke-linejoin:round"
       transform="matrix(1.3796,0,0,1.3796,-133.81,-201.68)"
       cx="374.24835"
       cy="545.82623"
       r="5.7516341" />
    <circle
       id="path3244"
       style="fill:#5a5a5a;fill-rule:evenodd;stroke:#454545;stroke-linecap:round;stroke-linejoin:round"
       transform="translate(-0.11915,1.4379)"
       cx="453.33334"
       cy="510.66284"
       r="8.2352943" />
    <circle
       id="path3246"
       style="fill:#5a5a5a;fill-rule:evenodd;stroke:#454545;stroke-linecap:round;stroke-linejoin:round"
       transform="translate(-0.11915,36.863)"
       cx="453.33334"
       cy="510.66284"
       r="8.2352943" />
    <circle
       id="path3248"
       style="fill:#5a5a5a;fill-rule:evenodd;stroke:#454545;stroke-linecap:round;stroke-linejoin:round"
       transform="rotate(180,462.13,520.25)"
       cx="453.33334"
       cy="510.66284"
       r="8.2352943" />
    <circle
       id="path3250"
       style="fill:#5a5a5a;fill-rule:evenodd;stroke:#454545;stroke-linecap:round;stroke-linejoin:round"
       transform="rotate(180,444.42,520.25)"
       cx="453.33334"
       cy="510.66284"
       r="8.2352943" />
    <path
       id="rect3214"
       style="fill:#262626;fill-rule:evenodd"
       d="m 301.84,501.25 c -1.53,0 -2.78,1.25 -2.78,2.78 v 14.66 h -14.68 c -1.54,0 -2.76,1.24 -2.76,2.78 v 15.59 c 0,1.54 1.22,2.78 2.76,2.78 h 14.68 v 14.66 c 0,1.54 1.25,2.78 2.78,2.78 h 15.6 c 1.53,0 2.75,-1.24 2.75,-2.78 v -14.66 h 14.69 c 1.53,0 2.74,-1.24 2.74,-2.78 v -15.59 c 0,-1.54 -1.21,-2.78 -2.74,-2.78 h -14.69 v -14.66 c 0,-1.53 -1.22,-2.78 -2.75,-2.78 z"
       inkscape:connector-curvature="0" />
    <circle
       id="path3289"
       style="fill:#333333;fill-rule:evenodd;stroke:#000000;stroke-width:1.56519997;stroke-linecap:round;stroke-linejoin:round"
       transform="matrix(0.63889,0,0,0.63889,222.12,228.66)"
       cx="303.79086"
       cy="528.9635"
       r="37.64706" />
    <circle
       id="path3291"
       style="fill:#000000;fill-opacity:0.51851998;fill-rule:evenodd;stroke:#000000;stroke-width:2.02819991;stroke-linecap:round;stroke-linejoin:round"
       transform="matrix(0.49306,0,0,0.49306,266.42,305.8)"
       cx="303.79086"
       cy="528.9635"
       r="37.64706" />
    <circle
       id="path3293"
       style="fill:#4d4d4d;fill-opacity:0.51851998;fill-rule:evenodd;stroke:#000000;stroke-width:2.32259989;stroke-linecap:round;stroke-linejoin:round"
       transform="matrix(0.43056,0,0,0.43056,285.41,338.86)"
       cx="303.79086"
       cy="528.9635"
       r="37.64706" />
    <g
       id="g3289"
       style="fill:#3f3f3f">
      <path
         id="path3273"
         style="fill:#3f3f3f;fill-rule:evenodd"
         sodipodi:type="star"
         sodipodi:sides="3"
         sodipodi:r1="8.4435501"
         sodipodi:r2="4.2217751"
         sodipodi:arg1="0"
         sodipodi:arg2="1.0471976"
         transform="matrix(0,-0.28374,-0.51741,0,575.79,583.64)"
         inkscape:randomized="0"
         sodipodi:cy="514.41351"
         sodipodi:cx="271.52805"
         inkscape:rounded="0"
         inkscape:flatsided="true"
         d="m 279.9716,514.41351 -12.66533,7.31233 v -14.62466 z" />
      <path
         id="path3295"
         style="fill:#3f3f3f;fill-rule:evenodd"
         sodipodi:type="star"
         d="m 279.9716,514.41351 -12.66533,7.31233 v -14.62466 z"
         sodipodi:r1="8.4435501"
         inkscape:flatsided="true"
         transform="matrix(0,0.28374,-0.51741,0,575.79,474.89)"
         sodipodi:arg2="1.0471976"
         sodipodi:arg1="0"
         inkscape:randomized="0"
         sodipodi:cy="514.41351"
         sodipodi:cx="271.52805"
         inkscape:rounded="0"
         sodipodi:r2="4.2217751"
         sodipodi:sides="3" />
      <path
         id="path3303"
         style="fill:#3f3f3f;fill-rule:evenodd"
         sodipodi:type="star"
         d="m 279.9716,514.41351 -12.66533,7.31233 v -14.62466 z"
         sodipodi:r1="8.4435501"
         inkscape:flatsided="true"
         transform="matrix(0.28374,0,0,-0.51741,255.25,795.43)"
         sodipodi:arg2="1.0471976"
         sodipodi:arg1="0"
         inkscape:randomized="0"
         sodipodi:cy="514.41351"
         sodipodi:cx="271.52805"
         inkscape:rounded="0"
         sodipodi:r2="4.2217751"
         sodipodi:sides="3" />
      <path
         id="path3305"
         style="fill:#3f3f3f;fill-rule:evenodd"
         sodipodi:type="star"
         sodipodi:sides="3"
         sodipodi:r1="8.4435501"
         sodipodi:r2="4.2217751"
         sodipodi:arg1="0"
         sodipodi:arg2="1.0471976"
         transform="matrix(-0.28374,0,0,-0.51741,364,795.43)"
         inkscape:randomized="0"
         sodipodi:cy="514.41351"
         sodipodi:cx="271.52805"
         inkscape:rounded="0"
         inkscape:flatsided="true"
         d="m 279.9716,514.41351 -12.66533,7.31233 v -14.62466 z" />
    </g>
    <rect
       id="rect3307"
       style="fill:none;stroke:#ff01db"
       rx="0"
       ry="0"
       height="9.4280996"
       width="9.4280996"
       y="525.09998"
       x="430.79001" />
    <path
       id="path3309"
       style="fill:none;stroke:#00ff83;stroke-width:1.14160001"
       sodipodi:type="star"
       sodipodi:sides="3"
       sodipodi:r1="6.9132905"
       sodipodi:r2="3.4566453"
       sodipodi:arg1="0.52359878"
       sodipodi:arg2="1.5707963"
       transform="matrix(0.87668,0,0,0.87521,59.31,61.955)"
       inkscape:randomized="0"
       sodipodi:cy="514.68372"
       sodipodi:cx="449.3132"
       inkscape:rounded="0"
       inkscape:flatsided="true"
       d="m 455.30029,518.14036 -11.97417,0 5.98708,-10.36993 z" />
    <circle
       id="path3311"
       style="fill:none;stroke:#ff0000;stroke-width:1.45829999;stroke-linecap:round;stroke-linejoin:round"
       transform="matrix(-0.68573,0,0,-0.68573,781.79,879.99)"
       cx="453.33334"
       cy="510.66284"
       r="8.2352943" />
    <path
       id="path3313"
       style="fill:none;stroke:#8243fb"
       d="m 449.04,543.43 8.5,8.5 m 0,-8.5 -8.5,8.5"
       inkscape:connector-curvature="0" />
    <g
       id="g5204"
       style="fill:#5a5a5a;stroke:#454545">
      <path
         id="path3322"
         style="fill:#5a5a5a;fill-rule:evenodd;stroke:#454545;stroke-linecap:round;stroke-linejoin:round"
         sodipodi:type="inkscape:offset"
         d="m 318.71094,523.29102 a 1.1789336,1.1789336 0 0 0 -0.94922,0.44726 l -3.5,4.4375 a 1.1789336,1.1789336 0 0 0 -0.002,1.45703 l 3.5,4.46875 a 1.1789336,1.1789336 0 0 0 0.92382,0.45313 l 8.125,0.0312 a 1.1789336,1.1789336 0 0 0 1.1836,-1.17969 V 524.625 a 1.1789336,1.1789336 0 0 0 -1.15625,-1.17773 z"
         inkscape:original="M 318.6875 524.46875 L 315.1875 528.90625 L 318.6875 533.375 L 326.8125 533.40625 L 326.8125 524.625 L 318.6875 524.46875 z "
         transform="translate(0.35102,0.37335)"
         inkscape:radius="1.1788157" />
      <path
         id="path3324"
         style="fill:#5a5a5a;fill-rule:evenodd;stroke:#454545;stroke-linecap:round;stroke-linejoin:round"
         sodipodi:type="inkscape:offset"
         d="m 318.71094,523.29102 a 1.1789336,1.1789336 0 0 0 -0.94922,0.44726 l -3.5,4.4375 a 1.1789336,1.1789336 0 0 0 -0.002,1.45703 l 3.5,4.46875 a 1.1789336,1.1789336 0 0 0 0.92382,0.45313 l 8.125,0.0312 a 1.1789336,1.1789336 0 0 0 1.1836,-1.17969 V 524.625 a 1.1789336,1.1789336 0 0 0 -1.15625,-1.17773 z"
         inkscape:original="M 318.6875 524.46875 L 315.1875 528.90625 L 318.6875 533.375 L 326.8125 533.40625 L 326.8125 524.625 L 318.6875 524.46875 z "
         transform="matrix(-1,0,0,1,618.9,0.2845)"
         inkscape:radius="1.1788157" />
      <path
         id="path3332"
         style="fill:#5a5a5a;fill-rule:evenodd;stroke:#454545;stroke-linecap:round;stroke-linejoin:round"
         sodipodi:type="inkscape:offset"
         d="m 318.71094,523.29102 a 1.1789336,1.1789336 0 0 0 -0.94922,0.44726 l -3.5,4.4375 a 1.1789336,1.1789336 0 0 0 -0.002,1.45703 l 3.5,4.46875 a 1.1789336,1.1789336 0 0 0 0.92382,0.45313 l 8.125,0.0312 a 1.1789336,1.1789336 0 0 0 1.1836,-1.17969 V 524.625 a 1.1789336,1.1789336 0 0 0 -1.15625,-1.17773 z"
         inkscape:original="M 318.6875 524.46875 L 315.1875 528.90625 L 318.6875 533.375 L 326.8125 533.40625 L 326.8125 524.625 L 318.6875 524.46875 z "
         transform="rotate(90,309.265,529.255)"
         inkscape:radius="1.1788157" />
      <path
         id="path3334"
         style="fill:#5a5a5a;fill-rule:evenodd;stroke:#454545;stroke-linecap:round;stroke-linejoin:round"
         sodipodi:type="inkscape:offset"
         d="m 318.71094,523.29102 a 1.1789336,1.1789336 0 0 0 -0.94922,0.44726 l -3.5,4.4375 a 1.1789336,1.1789336 0 0 0 -0.002,1.45703 l 3.5,4.46875 a 1.1789336,1.1789336 0 0 0 0.92382,0.45313 l 8.125,0.0312 a 1.1789336,1.1789336 0 0 0 1.1836,-1.17969 V 524.625 a 1.1789336,1.1789336 0 0 0 -1.15625,-1.17773 z"
         inkscape:original="M 318.6875 524.46875 L 315.1875 528.90625 L 318.6875 533.375 L 326.8125 533.40625 L 326.8125 524.625 L 318.6875 524.46875 z "
         transform="matrix(0,-1,-1,0,838.61,838.54)"
         inkscape:radius="1.1788157" />
    </g>
    <path
       id="text3336"
       style="fill:#000000"
       d="m 307.47,481.42 h 1.03 v 6.8 h 3.74 v 0.88 h -4.77 v -7.68"
       inkscape:connector-curvature="0" />
    <path
       id="text3340"
       style="fill:#000000"
       d="m 454.02,485.5 c 0.22,0.08 0.44,0.24 0.65,0.48 0.21,0.25 0.42,0.59 0.64,1.02 l 1.05,2.1 h -1.12 l -0.98,-1.97 c -0.25,-0.52 -0.5,-0.86 -0.74,-1.02 -0.23,-0.17 -0.56,-0.26 -0.97,-0.26 h -1.13 v 3.25 h -1.04 v -7.68 h 2.35 c 0.87,0 1.53,0.19 1.96,0.55 0.43,0.37 0.65,0.92 0.65,1.66 0,0.49 -0.12,0.89 -0.34,1.21 -0.23,0.32 -0.55,0.54 -0.98,0.66 m -2.6,-3.22 V 485 h 1.31 c 0.5,0 0.87,-0.11 1.13,-0.34 0.25,-0.24 0.38,-0.58 0.38,-1.03 0,-0.44 -0.13,-0.78 -0.38,-1.01 -0.26,-0.23 -0.63,-0.34 -1.13,-0.34 h -1.31"
       inkscape:connector-curvature="0" />
    <path
       id="text2434"
       style="fill:#e6e6e6"
       d="M 353.63,524.56 V 525 c -0.17,-0.08 -0.34,-0.14 -0.49,-0.18 -0.15,-0.04 -0.29,-0.06 -0.44,-0.06 -0.24,0 -0.43,0.04 -0.56,0.14 -0.14,0.09 -0.2,0.23 -0.2,0.4 0,0.15 0.04,0.26 0.13,0.34 0.09,0.07 0.26,0.13 0.5,0.18 l 0.27,0.05 c 0.34,0.07 0.59,0.18 0.75,0.34 0.16,0.16 0.24,0.38 0.24,0.65 0,0.32 -0.11,0.57 -0.33,0.73 -0.21,0.17 -0.53,0.25 -0.95,0.25 -0.15,0 -0.32,-0.02 -0.5,-0.05 -0.18,-0.04 -0.36,-0.09 -0.55,-0.16 v -0.46 c 0.18,0.1 0.36,0.18 0.54,0.23 0.17,0.05 0.34,0.08 0.51,0.08 0.26,0 0.46,-0.05 0.6,-0.15 0.14,-0.11 0.21,-0.25 0.21,-0.44 0,-0.16 -0.05,-0.29 -0.15,-0.38 -0.1,-0.09 -0.27,-0.16 -0.5,-0.21 l -0.27,-0.05 c -0.34,-0.07 -0.58,-0.17 -0.73,-0.32 -0.15,-0.14 -0.23,-0.34 -0.23,-0.59 0,-0.3 0.11,-0.53 0.31,-0.7 0.21,-0.17 0.5,-0.25 0.86,-0.25 0.16,0 0.32,0.01 0.48,0.04 0.16,0.03 0.33,0.07 0.5,0.13 m 0.9,-0.11 h 2.1 v 0.38 h -1.65 v 0.98 h 1.59 v 0.38 h -1.59 v 1.21 h 1.69 v 0.38 h -2.14 v -3.33 m 2.89,0 h 0.45 v 2.95 h 1.62 v 0.38 h -2.07 v -3.33 m 2.54,0 h 2.1 v 0.38 h -1.65 v 0.98 H 362 v 0.38 h -1.59 v 1.21 h 1.7 v 0.38 h -2.15 v -3.33 m 5.38,0.26 v 0.47 c -0.15,-0.14 -0.31,-0.25 -0.48,-0.32 -0.17,-0.07 -0.36,-0.1 -0.55,-0.1 -0.38,0 -0.67,0.12 -0.87,0.35 -0.21,0.23 -0.31,0.57 -0.31,1.01 0,0.44 0.1,0.77 0.31,1 0.2,0.24 0.49,0.35 0.87,0.35 0.19,0 0.38,-0.03 0.55,-0.1 0.17,-0.07 0.33,-0.18 0.48,-0.32 v 0.47 c -0.16,0.11 -0.32,0.19 -0.5,0.24 -0.17,0.06 -0.36,0.08 -0.56,0.08 -0.5,0 -0.9,-0.15 -1.19,-0.46 -0.29,-0.31 -0.43,-0.73 -0.43,-1.26 0,-0.54 0.14,-0.96 0.43,-1.27 0.29,-0.31 0.69,-0.46 1.19,-0.46 0.2,0 0.39,0.03 0.56,0.08 0.18,0.05 0.35,0.13 0.5,0.24 m 0.24,-0.26 h 2.82 v 0.38 h -1.19 v 2.95 h -0.45 v -2.95 h -1.18 v -0.38"
       inkscape:connector-curvature="0" />
    <path
       id="text2438"
       style="fill:#e6e6e6"
       d="M 396.51,524.56 V 525 c -0.17,-0.08 -0.33,-0.14 -0.48,-0.18 -0.16,-0.04 -0.3,-0.06 -0.44,-0.06 -0.25,0 -0.44,0.04 -0.57,0.14 -0.13,0.09 -0.2,0.23 -0.2,0.4 0,0.15 0.04,0.26 0.13,0.34 0.09,0.07 0.26,0.13 0.5,0.18 l 0.28,0.05 c 0.33,0.07 0.58,0.18 0.74,0.34 0.16,0.16 0.24,0.38 0.24,0.65 0,0.32 -0.11,0.57 -0.33,0.73 -0.21,0.17 -0.53,0.25 -0.95,0.25 -0.15,0 -0.32,-0.02 -0.5,-0.05 -0.18,-0.04 -0.36,-0.09 -0.55,-0.16 v -0.46 c 0.18,0.1 0.36,0.18 0.54,0.23 0.17,0.05 0.34,0.08 0.51,0.08 0.26,0 0.46,-0.05 0.6,-0.15 0.14,-0.11 0.21,-0.25 0.21,-0.44 0,-0.16 -0.05,-0.29 -0.15,-0.38 -0.1,-0.09 -0.27,-0.16 -0.5,-0.21 l -0.27,-0.05 c -0.34,-0.07 -0.58,-0.17 -0.73,-0.32 -0.15,-0.14 -0.22,-0.34 -0.22,-0.59 0,-0.3 0.1,-0.53 0.31,-0.7 0.2,-0.17 0.49,-0.25 0.85,-0.25 0.16,0 0.32,0.01 0.48,0.04 0.16,0.03 0.33,0.07 0.5,0.13 m 0.44,-0.11 h 2.82 v 0.38 h -1.19 v 2.95 h -0.45 v -2.95 h -1.18 v -0.38 m 4.01,0.44 -0.61,1.66 h 1.22 l -0.61,-1.66 m -0.26,-0.44 h 0.51 l 1.27,3.33 h -0.46 l -0.31,-0.86 h -1.5 l -0.3,0.86 h -0.48 l 1.27,-3.33 m 3.85,1.77 c 0.09,0.03 0.19,0.1 0.28,0.21 0.09,0.1 0.18,0.25 0.27,0.44 l 0.46,0.91 h -0.48 l -0.43,-0.86 c -0.11,-0.22 -0.22,-0.37 -0.32,-0.44 -0.1,-0.07 -0.24,-0.11 -0.42,-0.11 h -0.49 v 1.41 h -0.45 v -3.33 h 1.01 c 0.38,0 0.67,0.08 0.86,0.24 0.18,0.16 0.28,0.4 0.28,0.72 0,0.21 -0.05,0.38 -0.15,0.52 -0.1,0.14 -0.24,0.23 -0.42,0.29 m -1.13,-1.4 V 526 h 0.56 c 0.22,0 0.38,-0.05 0.49,-0.15 0.12,-0.1 0.17,-0.25 0.17,-0.44 0,-0.2 -0.05,-0.34 -0.17,-0.44 -0.11,-0.1 -0.27,-0.15 -0.49,-0.15 h -0.56 m 1.93,-0.37 h 2.82 v 0.38 h -1.19 v 2.95 h -0.45 v -2.95 h -1.18 v -0.38"
       inkscape:connector-curvature="0" />
    <text
       xml:space="preserve"
       style="font-style:normal;font-weight:normal;font-size:13.5505209px;line-height:125%;font-family:Sans;letter-spacing:0px;word-spacing:0px;fill:#000000;fill-opacity:1;stroke:none;stroke-width:0.33876303px;stroke-linecap:butt;stroke-linejoin:miter;stroke-opacity:1"
       x="211.42358"
       y="531.08539"
       id="text66"><tspan
         sodipodi:role="line"
         id="tspan64"
         x="211.42358"
         y="531.08539"
         style="stroke-width:0.33876303px">Dpad</tspan></text>
    <text
       xml:space="preserve"
       style="font-style:normal;font-weight:normal;font-size:13.5505209px;line-height:125%;font-family:Sans;letter-spacing:0px;word-spacing:0px;fill:#000000;fill-opacity:1;stroke:none;stroke-width:0.33876303px;stroke-linecap:butt;stroke-linejoin:miter;stroke-opacity:1"
       x="231.22005"
       y="494.37402"
       id="text66-7"><tspan
         sodipodi:role="line"
         id="tspan64-7"
         x="231.22005"
         y="494.37402"
         style="stroke-width:0.33876303px">L1</tspan></text>
    <text
       xml:space="preserve"
       style="font-style:normal;font-weight:normal;font-size:13.5505209px;line-height:125%;font-family:Sans;letter-spacing:0px;word-spacing:0px;fill:#000000;fill-opacity:1;stroke:none;stroke-width:0.33876303px;stroke-linecap:butt;stroke-linejoin:miter;stroke-opacity:1"
       x="231.32591"
       y="477.06146"
       id="text66-7-8"><tspan
         sodipodi:role="line"
         id="tspan64-7-7"
         x="231.32591"
         y="477.06146"
         style="stroke-width:0.33876303px">L2</tspan></text>
    <text
       xml:space="preserve"
       style="font-style:normal;font-weight:normal;font-size:13.5505209px;line-height:125%;font-family:Sans;letter-spacing:0px;word-spacing:0px;fill:#000000;fill-opacity:1;stroke:none;stroke-width:0.33876303px;stroke-linecap:butt;stroke-linejoin:miter;stroke-opacity:1"
       x="516.65393"
       y="494.37402"
       id="text66-7-4"><tspan
         sodipodi:role="line"
         id="tspan64-7-6"
         x="516.65393"
         y="494.37402"
         style="stroke-width:0.33876303px">R1</tspan></text>
    <text
       xml:space="preserve"
       style="font-style:normal;font-weight:normal;font-size:13.5505209px;line-height:125%;font-family:Sans;letter-spacing:0px;word-spacing:0px;fill:#000000;fill-opacity:1;stroke:none;stroke-width:0.33876303px;stroke-linecap:butt;stroke-linejoin:miter;stroke-opacity:1"
       x="516.65393"
       y="477.06146"
       id="text66-7-8-0"><tspan
         sodipodi:role="line"
         id="tspan64-7-7-6"
         x="516.65393"
         y="477.06146"
         style="stroke-width:0.33876303px">R2</tspan></text>
    <text
       xml:space="preserve"
       style="font-style:normal;font-weight:normal;font-size:13.5505209px;line-height:125%;font-family:Sans;letter-spacing:0px;word-spacing:0px;fill:#000000;fill-opacity:1;stroke:none;stroke-width:0.33876303px;stroke-linecap:butt;stroke-linejoin:miter;stroke-opacity:1"
       x="345.99438"
       y="631.05804"
       id="text66-0"><tspan
         sodipodi:role="line"
         id="tspan64-3"
         x="345.99438"
         y="631.05804"
         style="font-style:normal;font-variant:normal;font-weight:normal;font-stretch:normal;font-size:13.55066681px;font-family:Sans;-inkscape-font-specification:'Sans, Normal';font-variant-ligatures:normal;font-variant-caps:normal;font-variant-numeric:normal;font-feature-settings:normal;text-align:center;writing-mode:lr-tb;text-anchor:middle;stroke-width:0.33876303px">Left</tspan><tspan
         sodipodi:role="line"
         x="345.99438"
         y="647.99622"
         style="font-style:normal;font-variant:normal;font-weight:normal;font-stretch:normal;font-size:13.55066681px;font-family:Sans;-inkscape-font-specification:'Sans, Normal';font-variant-ligatures:normal;font-variant-caps:normal;font-variant-numeric:normal;font-feature-settings:normal;text-align:center;writing-mode:lr-tb;text-anchor:middle;stroke-width:0.33876303px"
         id="tspan290">analog</tspan></text>
    <text
       xml:space="preserve"
       style="font-style:normal;font-weight:normal;font-size:13.5505209px;line-height:125%;font-family:Sans;letter-spacing:0px;word-spacing:0px;fill:#000000;fill-opacity:1;stroke:none;stroke-width:0.33876303px;stroke-linecap:butt;stroke-linejoin:miter;stroke-opacity:1"
       x="417.50623"
       y="631.64874"
       id="text66-0-5"><tspan
         sodipodi:role="line"
         id="tspan64-3-7"
         x="417.50623"
         y="631.64874"
         style="font-style:normal;font-variant:normal;font-weight:normal;font-stretch:normal;font-size:13.55066681px;font-family:Sans;-inkscape-font-specification:'Sans, Normal';font-variant-ligatures:normal;font-variant-caps:normal;font-variant-numeric:normal;font-feature-settings:normal;text-align:center;writing-mode:lr-tb;text-anchor:middle;stroke-width:0.33876303px">Righ</tspan><tspan
         sodipodi:role="line"
         x="417.50623"
         y="648.58691"
         style="font-style:normal;font-variant:normal;font-weight:normal;font-stretch:normal;font-size:13.55066681px;font-family:Sans;-inkscape-font-specification:'Sans, Normal';font-variant-ligatures:normal;font-variant-caps:normal;font-variant-numeric:normal;font-feature-settings:normal;text-align:center;writing-mode:lr-tb;text-anchor:middle;stroke-width:0.33876303px"
         id="tspan292">analog</tspan></text>
    <text
       xml:space="preserve"
       style="font-style:normal;font-weight:normal;font-size:13.5505209px;line-height:125%;font-family:Sans;letter-spacing:0px;word-spacing:0px;fill:#000000;fill-opacity:1;stroke:none;stroke-width:0.33876303px;stroke-linecap:butt;stroke-linejoin:miter;stroke-opacity:1"
       x="363.0054"
       y="472.54861"
       id="text66-0-5-0"><tspan
         sodipodi:role="line"
         id="tspan64-3-7-3"
         x="363.0054"
         y="472.54861"
         style="stroke-width:0.33876303px">Guide</tspan></text>
    <text
       xml:space="preserve"
       style="font-style:normal;font-weight:normal;font-size:13.5505209px;line-height:125%;font-family:Sans;letter-spacing:0px;word-spacing:0px;fill:#000000;fill-opacity:1;stroke:none;stroke-width:0.33876303px;stroke-linecap:butt;stroke-linejoin:miter;stroke-opacity:1"
       x="332.36145"
       y="492.57684"
       id="text66-0-5-0-1"><tspan
         sodipodi:role="line"
         id="tspan64-3-7-3-6"
         x="332.36145"
         y="492.57684"
         style="stroke-width:0.33876303px">Select</tspan></text>
    <text
       xml:space="preserve"
       style="font-style:normal;font-weight:normal;font-size:13.5505209px;line-height:125%;font-family:Sans;letter-spacing:0px;word-spacing:0px;fill:#000000;fill-opacity:1;stroke:none;stroke-width:0.33876303px;stroke-linecap:butt;stroke-linejoin:miter;stroke-opacity:1"
       x="393.15314"
       y="492.45776"
       id="text66-0-5-0-1-5"><tspan
         sodipodi:role="line"
         id="tspan64-3-7-3-6-9"
         x="393.15314"
         y="492.45776"
         style="stroke-width:0.33876303px">Start</tspan></text>
    <text
       xml:space="preserve"
       style="font-style:normal;font-weight:normal;font-size:13.5505209px;line-height:125%;font-family:Sans;letter-spacing:0px;word-spacing:0px;fill:#000000;fill-opacity:1;stroke:none;stroke-width:0.33876303px;stroke-linecap:butt;stroke-linejoin:miter;stroke-opacity:1"
       x="505.66943"
       y="534.84656"
       id="text66-7-4-9"><tspan
         sodipodi:role="line"
         id="tspan64-7-6-3"
         x="505.66943"
         y="534.84656"
         style="stroke-width:0.33876303px">Y</tspan></text>
    <text
       xml:space="preserve"
       style="font-style:normal;font-weight:normal;font-size:13.5505209px;line-height:125%;font-family:Sans;letter-spacing:0px;word-spacing:0px;fill:#000000;fill-opacity:1;stroke:none;stroke-width:0.33876303px;stroke-linecap:butt;stroke-linejoin:miter;stroke-opacity:1"
       x="521.22375"
       y="515.68317"
       id="text66-7-8-0-9"><tspan
         sodipodi:role="line"
         id="tspan64-7-7-6-2"
         x="521.22375"
         y="515.68317"
         style="stroke-width:0.33876303px">X</tspan></text>
    <text
       xml:space="preserve"
       style="font-style:normal;font-weight:normal;font-size:13.5505209px;line-height:125%;font-family:Sans;letter-spacing:0px;word-spacing:0px;fill:#000000;fill-opacity:1;stroke:none;stroke-width:0.33876303px;stroke-linecap:butt;stroke-linejoin:miter;stroke-opacity:1"
       x="521.02197"
       y="552.23785"
       id="text66-7-4-6"><tspan
         sodipodi:role="line"
         id="tspan64-7-6-7"
         x="521.02197"
         y="552.23785"
         style="stroke-width:0.33876303px">B</tspan></text>
    <text
       xml:space="preserve"
       style="font-style:normal;font-weight:normal;font-size:13.5505209px;line-height:125%;font-family:Sans;letter-spacing:0px;word-spacing:0px;fill:#000000;fill-opacity:1;stroke:none;stroke-width:0.33876303px;stroke-linecap:butt;stroke-linejoin:miter;stroke-opacity:1"
       x="539.53455"
       y="534.84656"
       id="text66-7-8-0-6"><tspan
         sodipodi:role="line"
         id="tspan64-7-7-6-0"
         x="539.53455"
         y="534.84656"
         style="stroke-width:0.33876303px">A</tspan></text>
    <text
       xml:space="preserve"
       style="font-style:normal;font-weight:normal;font-size:13.5505209px;line-height:125%;font-family:Sans;letter-spacing:0px;word-spacing:0px;fill:#000000;fill-opacity:1;stroke:none;stroke-width:0.33876303px;stroke-linecap:butt;stroke-linejoin:miter;stroke-opacity:1"
       x="338.00867"
       y="608.75934"
       id="text66-0-4"><tspan
         sodipodi:role="line"
         id="tspan64-3-72"
         x="338.00867"
         y="608.75934"
         style="stroke-width:0.33876303px">L3</tspan></text>
    <text
       xml:space="preserve"
       style="font-style:normal;font-weight:normal;font-size:13.5505209px;line-height:125%;font-family:Sans;letter-spacing:0px;word-spacing:0px;fill:#000000;fill-opacity:1;stroke:none;stroke-width:0.33876303px;stroke-linecap:butt;stroke-linejoin:miter;stroke-opacity:1"
       x="408.29849"
       y="607.578"
       id="text66-0-5-00"><tspan
         sodipodi:role="line"
         id="tspan64-3-7-30"
         x="408.29849"
         y="607.578"
         style="stroke-width:0.33876303px">R3</tspan></text>
  </g>
  <metadata
     id="metadata59">
    <rdf:RDF>
      <cc:Work>
        <dc:format>image/svg+xml</dc:format>
        <dc:type
           rdf:resource="http://purl.org/dc/dcmitype/StillImage" />
        <cc:license
           rdf:resource="http://creativecommons.org/publicdomain/zero/1.0/" />
        <dc:publisher>
          <cc:Agent
             rdf:about="http://openclipart.org/">
            <dc:title>Openclipart</dc:title>
          </cc:Agent>
        </dc:publisher>
        <dc:title>Playstation3 Gamepad</dc:title>
        <dc:date>2009-04-20T05:25:47</dc:date>
        <dc:description>Playstation 3 Dualshock Gamepad</dc:description>
        <dc:source>https://openclipart.org/detail/25145/playstation3-gamepad-by-grumbel</dc:source>
        <dc:creator>
          <cc:Agent>
            <dc:title>grumbel</dc:title>
          </cc:Agent>
        </dc:creator>
        <dc:subject>
          <rdf:Bag>
            <rdf:li>game</rdf:li>
            <rdf:li>gamepad</rdf:li>
            <rdf:li>playstation</rdf:li>
            <rdf:li>ps3</rdf:li>
          </rdf:Bag>
        </dc:subject>
      </cc:Work>
      <cc:License
         rdf:about="http://creativecommons.org/publicdomain/zero/1.0/">
        <cc:permits
           rdf:resource="http://creativecommons.org/ns#Reproduction" />
        <cc:permits
           rdf:resource="http://creativecommons.org/ns#Distribution" />
        <cc:permits
           rdf:resource="http://creativecommons.org/ns#DerivativeWorks" />
      </cc:License>
    </rdf:RDF>
  </metadata>
</svg>
